<svg xmlns="http://www.w3.org/2000/svg" xmlns:xlink="http://www.w3.org/1999/xlink" width="500" zoomAndPan="magnify" viewBox="0 0 375 374.999991" height="500" preserveAspectRatio="xMidYMid meet" version="1.0"><defs><g/><clipPath id="2920444461"><path d="M 121.785156 142 L 212 142 L 212 232.273438 L 121.785156 232.273438 Z M 121.785156 142 " clip-rule="nonzero"/></clipPath><clipPath id="f36d486e93"><path d="M 123 71.023438 L 253.035156 71.023438 L 253.035156 148 L 123 148 Z M 123 71.023438 " clip-rule="nonzero"/></clipPath></defs><rect x="-37.5" width="450" fill="#ffffff" y="-37.499999" height="449.999989" fill-opacity="1"/><rect x="-37.5" width="450" fill="#ffffff" y="-37.499999" height="449.999989" fill-opacity="1"/><g clip-path="url(#2920444461)"><path fill="#004aad" d="M 121.808594 232.273438 C 121.808594 182.488281 162.167969 142.132812 211.953125 142.132812 L 211.953125 176.03125 C 180.890625 176.03125 155.710938 201.210938 155.710938 232.273438 Z M 121.808594 232.273438 " fill-opacity="1" fill-rule="evenodd"/></g><g clip-path="url(#f36d486e93)"><path fill="#004aad" d="M 164.523438 147.964844 L 164.523438 121.617188 C 164.523438 112.433594 172.035156 104.925781 181.21875 104.925781 L 253.1875 104.925781 L 253.1875 71.023438 L 173.917969 71.023438 C 173.046875 71.023438 172.183594 71.046875 171.320312 71.089844 L 123.328125 71.089844 L 123.328125 147.964844 Z M 164.523438 147.964844 " fill-opacity="1" fill-rule="evenodd"/></g><g fill="#004aad" fill-opacity="1"><g transform="translate(117.805053, 278.511224)"><g><path d="M 19.421875 -26.265625 L 19.421875 -21.140625 L 8.71875 -21.140625 L 8.71875 -15.609375 L 16.734375 -15.609375 L 16.734375 -10.625 L 8.71875 -10.625 L 8.71875 0 L 2.3125 0 L 2.3125 -26.265625 Z M 19.421875 -26.265625 "/></g></g></g><g fill="#004aad" fill-opacity="1"><g transform="translate(138.270112, 278.511224)"><g><path d="M 18.671875 -4.640625 L 8.875 -4.640625 L 7.296875 0 L 0.59375 0 L 10.109375 -26.265625 L 17.515625 -26.265625 L 27.015625 0 L 20.25 0 Z M 17.03125 -9.578125 L 13.765625 -19.203125 L 10.546875 -9.578125 Z M 17.03125 -9.578125 "/></g></g></g><g fill="#004aad" fill-opacity="1"><g transform="translate(165.843677, 278.511224)"><g><path d="M 1.234375 -13.171875 C 1.234375 -15.765625 1.796875 -18.078125 2.921875 -20.109375 C 4.046875 -22.148438 5.609375 -23.734375 7.609375 -24.859375 C 9.617188 -25.992188 11.894531 -26.5625 14.4375 -26.5625 C 17.5625 -26.5625 20.234375 -25.738281 22.453125 -24.09375 C 24.671875 -22.445312 26.15625 -20.203125 26.90625 -17.359375 L 19.875 -17.359375 C 19.34375 -18.460938 18.597656 -19.300781 17.640625 -19.875 C 16.679688 -20.445312 15.59375 -20.734375 14.375 -20.734375 C 12.394531 -20.734375 10.796875 -20.046875 9.578125 -18.671875 C 8.359375 -17.296875 7.75 -15.460938 7.75 -13.171875 C 7.75 -10.878906 8.359375 -9.046875 9.578125 -7.671875 C 10.796875 -6.296875 12.394531 -5.609375 14.375 -5.609375 C 15.59375 -5.609375 16.679688 -5.894531 17.640625 -6.46875 C 18.597656 -7.039062 19.34375 -7.878906 19.875 -8.984375 L 26.90625 -8.984375 C 26.15625 -6.140625 24.671875 -3.898438 22.453125 -2.265625 C 20.234375 -0.628906 17.5625 0.1875 14.4375 0.1875 C 11.894531 0.1875 9.617188 -0.378906 7.609375 -1.515625 C 5.609375 -2.648438 4.046875 -4.226562 2.921875 -6.25 C 1.796875 -8.269531 1.234375 -10.578125 1.234375 -13.171875 Z M 1.234375 -13.171875 "/></g></g></g><g fill="#004aad" fill-opacity="1"><g transform="translate(194.352571, 278.511224)"><g><path d="M 25.078125 -26.265625 L 25.078125 0 L 18.671875 0 L 18.671875 -10.8125 L 8.71875 -10.8125 L 8.71875 0 L 2.3125 0 L 2.3125 -26.265625 L 8.71875 -26.265625 L 8.71875 -15.984375 L 18.671875 -15.984375 L 18.671875 -26.265625 Z M 25.078125 -26.265625 "/></g></g></g><g fill="#004aad" fill-opacity="1"><g transform="translate(221.701673, 278.511224)"><g><path d="M 15.71875 0 L 10.25 -9.921875 L 8.71875 -9.921875 L 8.71875 0 L 2.3125 0 L 2.3125 -26.265625 L 13.0625 -26.265625 C 15.132812 -26.265625 16.898438 -25.898438 18.359375 -25.171875 C 19.816406 -24.453125 20.90625 -23.460938 21.625 -22.203125 C 22.351562 -20.941406 22.71875 -19.539062 22.71875 -18 C 22.71875 -16.25 22.222656 -14.6875 21.234375 -13.3125 C 20.253906 -11.945312 18.800781 -10.976562 16.875 -10.40625 L 22.9375 0 Z M 8.71875 -14.4375 L 12.6875 -14.4375 C 13.851562 -14.4375 14.726562 -14.722656 15.3125 -15.296875 C 15.90625 -15.878906 16.203125 -16.691406 16.203125 -17.734375 C 16.203125 -18.734375 15.90625 -19.519531 15.3125 -20.09375 C 14.726562 -20.664062 13.851562 -20.953125 12.6875 -20.953125 L 8.71875 -20.953125 Z M 8.71875 -14.4375 "/></g></g></g><g fill="#004aad" fill-opacity="1"><g transform="translate(246.095114, 278.511224)"><g><path d="M 8.71875 -26.265625 L 8.71875 0 L 2.3125 0 L 2.3125 -26.265625 Z M 8.71875 -26.265625 "/></g></g></g><g fill="#004aad" fill-opacity="1"><g transform="translate(96.710419, 298.550761)"><g><path d="M 5.453125 0.125 C 4.609375 0.125 3.851562 -0.0195312 3.1875 -0.3125 C 2.53125 -0.613281 2.007812 -1.03125 1.625 -1.5625 C 1.25 -2.09375 1.054688 -2.707031 1.046875 -3.40625 L 2.8125 -3.40625 C 2.875 -2.8125 3.125 -2.304688 3.5625 -1.890625 C 4 -1.484375 4.628906 -1.28125 5.453125 -1.28125 C 6.242188 -1.28125 6.867188 -1.476562 7.328125 -1.875 C 7.785156 -2.269531 8.015625 -2.78125 8.015625 -3.40625 C 8.015625 -3.894531 7.878906 -4.289062 7.609375 -4.59375 C 7.347656 -4.894531 7.015625 -5.125 6.609375 -5.28125 C 6.203125 -5.445312 5.660156 -5.625 4.984375 -5.8125 C 4.140625 -6.03125 3.460938 -6.25 2.953125 -6.46875 C 2.453125 -6.6875 2.019531 -7.03125 1.65625 -7.5 C 1.289062 -7.96875 1.109375 -8.597656 1.109375 -9.390625 C 1.109375 -10.085938 1.285156 -10.703125 1.640625 -11.234375 C 1.992188 -11.773438 2.492188 -12.191406 3.140625 -12.484375 C 3.785156 -12.773438 4.519531 -12.921875 5.34375 -12.921875 C 6.539062 -12.921875 7.519531 -12.625 8.28125 -12.03125 C 9.050781 -11.4375 9.484375 -10.644531 9.578125 -9.65625 L 7.75 -9.65625 C 7.6875 -10.144531 7.425781 -10.570312 6.96875 -10.9375 C 6.519531 -11.3125 5.925781 -11.5 5.1875 -11.5 C 4.488281 -11.5 3.914062 -11.316406 3.46875 -10.953125 C 3.03125 -10.597656 2.8125 -10.097656 2.8125 -9.453125 C 2.8125 -8.984375 2.941406 -8.601562 3.203125 -8.3125 C 3.472656 -8.019531 3.800781 -7.796875 4.1875 -7.640625 C 4.570312 -7.492188 5.113281 -7.320312 5.8125 -7.125 C 6.644531 -6.894531 7.316406 -6.664062 7.828125 -6.4375 C 8.347656 -6.207031 8.789062 -5.859375 9.15625 -5.390625 C 9.519531 -4.921875 9.703125 -4.285156 9.703125 -3.484375 C 9.703125 -2.859375 9.535156 -2.269531 9.203125 -1.71875 C 8.878906 -1.164062 8.394531 -0.71875 7.75 -0.375 C 7.101562 -0.0390625 6.335938 0.125 5.453125 0.125 Z M 5.453125 0.125 "/></g></g></g><g fill="#004aad" fill-opacity="1"><g transform="translate(107.088979, 298.550761)"><g><path d="M 7.203125 0.125 C 6.015625 0.125 4.929688 -0.148438 3.953125 -0.703125 C 2.972656 -1.253906 2.195312 -2.023438 1.625 -3.015625 C 1.0625 -4.015625 0.78125 -5.140625 0.78125 -6.390625 C 0.78125 -7.640625 1.0625 -8.757812 1.625 -9.75 C 2.195312 -10.75 2.972656 -11.523438 3.953125 -12.078125 C 4.929688 -12.628906 6.015625 -12.90625 7.203125 -12.90625 C 8.390625 -12.90625 9.472656 -12.628906 10.453125 -12.078125 C 11.429688 -11.523438 12.203125 -10.753906 12.765625 -9.765625 C 13.328125 -8.773438 13.609375 -7.648438 13.609375 -6.390625 C 13.609375 -5.128906 13.328125 -4.003906 12.765625 -3.015625 C 12.203125 -2.023438 11.429688 -1.253906 10.453125 -0.703125 C 9.472656 -0.148438 8.390625 0.125 7.203125 0.125 Z M 7.203125 -1.3125 C 8.085938 -1.3125 8.882812 -1.519531 9.59375 -1.9375 C 10.3125 -2.351562 10.875 -2.945312 11.28125 -3.71875 C 11.695312 -4.488281 11.90625 -5.378906 11.90625 -6.390625 C 11.90625 -7.410156 11.695312 -8.300781 11.28125 -9.0625 C 10.875 -9.832031 10.316406 -10.425781 9.609375 -10.84375 C 8.898438 -11.257812 8.097656 -11.46875 7.203125 -11.46875 C 6.296875 -11.46875 5.488281 -11.257812 4.78125 -10.84375 C 4.070312 -10.425781 3.507812 -9.832031 3.09375 -9.0625 C 2.6875 -8.300781 2.484375 -7.410156 2.484375 -6.390625 C 2.484375 -5.378906 2.6875 -4.488281 3.09375 -3.71875 C 3.507812 -2.945312 4.070312 -2.351562 4.78125 -1.9375 C 5.5 -1.519531 6.304688 -1.3125 7.203125 -1.3125 Z M 7.203125 -1.3125 "/></g></g></g><g fill="#004aad" fill-opacity="1"><g transform="translate(121.110165, 298.550761)"><g><path d="M 8.625 -12.765625 L 8.625 -11.40625 L 3.078125 -11.40625 L 3.078125 -7.109375 L 7.578125 -7.109375 L 7.578125 -5.75 L 3.078125 -5.75 L 3.078125 0 L 1.40625 0 L 1.40625 -12.765625 Z M 8.625 -12.765625 "/></g></g></g><g fill="#004aad" fill-opacity="1"><g transform="translate(129.969445, 298.550761)"><g><path d="M 9.265625 -12.765625 L 9.265625 -11.40625 L 5.78125 -11.40625 L 5.78125 0 L 4.125 0 L 4.125 -11.40625 L 0.625 -11.40625 L 0.625 -12.765625 Z M 9.265625 -12.765625 "/></g></g></g><g fill="#004aad" fill-opacity="1"><g transform="translate(139.506004, 298.550761)"><g><path d="M 17.453125 -12.765625 L 13.75 0 L 11.890625 0 L 8.921875 -10.265625 L 5.84375 0 L 3.984375 0.015625 L 0.421875 -12.765625 L 2.203125 -12.765625 L 4.984375 -1.9375 L 8.0625 -12.765625 L 9.921875 -12.765625 L 12.859375 -1.984375 L 15.65625 -12.765625 Z M 17.453125 -12.765625 "/></g></g></g><g fill="#004aad" fill-opacity="1"><g transform="translate(157.005074, 298.550761)"><g><path d="M 8.953125 -2.84375 L 3.390625 -2.84375 L 2.359375 0 L 0.609375 0 L 5.21875 -12.6875 L 7.140625 -12.6875 L 11.734375 0 L 9.984375 0 Z M 8.484375 -4.1875 L 6.171875 -10.640625 L 3.859375 -4.1875 Z M 8.484375 -4.1875 "/></g></g></g><g fill="#004aad" fill-opacity="1"><g transform="translate(168.976141, 298.550761)"><g><path d="M 8.125 0 L 5.09375 -5.21875 L 3.078125 -5.21875 L 3.078125 0 L 1.40625 0 L 1.40625 -12.765625 L 5.53125 -12.765625 C 6.5 -12.765625 7.3125 -12.597656 7.96875 -12.265625 C 8.632812 -11.941406 9.132812 -11.5 9.46875 -10.9375 C 9.800781 -10.375 9.96875 -9.734375 9.96875 -9.015625 C 9.96875 -8.128906 9.710938 -7.347656 9.203125 -6.671875 C 8.691406 -6.003906 7.929688 -5.5625 6.921875 -5.34375 L 10.125 0 Z M 3.078125 -6.5625 L 5.53125 -6.5625 C 6.4375 -6.5625 7.113281 -6.78125 7.5625 -7.21875 C 8.007812 -7.664062 8.234375 -8.265625 8.234375 -9.015625 C 8.234375 -9.765625 8.007812 -10.347656 7.5625 -10.765625 C 7.125 -11.179688 6.445312 -11.390625 5.53125 -11.390625 L 3.078125 -11.390625 Z M 3.078125 -6.5625 "/></g></g></g><g fill="#004aad" fill-opacity="1"><g transform="translate(179.739105, 298.550761)"><g><path d="M 3.078125 -11.40625 L 3.078125 -7.140625 L 7.734375 -7.140625 L 7.734375 -5.765625 L 3.078125 -5.765625 L 3.078125 -1.375 L 8.28125 -1.375 L 8.28125 0 L 1.40625 0 L 1.40625 -12.78125 L 8.28125 -12.78125 L 8.28125 -11.40625 Z M 3.078125 -11.40625 "/></g></g></g><g fill="#004aad" fill-opacity="1"><g transform="translate(188.763127, 298.550761)"><g/></g></g><g fill="#004aad" fill-opacity="1"><g transform="translate(193.284202, 298.550761)"><g><path d="M 5.390625 -12.765625 C 6.773438 -12.765625 7.976562 -12.503906 9 -11.984375 C 10.019531 -11.460938 10.800781 -10.71875 11.34375 -9.75 C 11.882812 -8.789062 12.15625 -7.660156 12.15625 -6.359375 C 12.15625 -5.046875 11.882812 -3.910156 11.34375 -2.953125 C 10.800781 -1.992188 10.019531 -1.257812 9 -0.75 C 7.976562 -0.25 6.773438 0 5.390625 0 L 1.40625 0 L 1.40625 -12.765625 Z M 5.390625 -1.375 C 7.035156 -1.375 8.289062 -1.804688 9.15625 -2.671875 C 10.019531 -3.546875 10.453125 -4.773438 10.453125 -6.359375 C 10.453125 -7.941406 10.015625 -9.175781 9.140625 -10.0625 C 8.273438 -10.957031 7.023438 -11.40625 5.390625 -11.40625 L 3.078125 -11.40625 L 3.078125 -1.375 Z M 5.390625 -1.375 "/></g></g></g><g fill="#004aad" fill-opacity="1"><g transform="translate(205.85932, 298.550761)"><g><path d="M 3.078125 -11.40625 L 3.078125 -7.140625 L 7.734375 -7.140625 L 7.734375 -5.765625 L 3.078125 -5.765625 L 3.078125 -1.375 L 8.28125 -1.375 L 8.28125 0 L 1.40625 0 L 1.40625 -12.78125 L 8.28125 -12.78125 L 8.28125 -11.40625 Z M 3.078125 -11.40625 "/></g></g></g><g fill="#004aad" fill-opacity="1"><g transform="translate(214.883341, 298.550761)"><g><path d="M 11.953125 -12.765625 L 7.140625 0 L 5.21875 0 L 0.40625 -12.765625 L 2.171875 -12.765625 L 6.1875 -1.765625 L 10.203125 -12.765625 Z M 11.953125 -12.765625 "/></g></g></g><g fill="#004aad" fill-opacity="1"><g transform="translate(226.89103, 298.550761)"><g><path d="M 3.078125 -11.40625 L 3.078125 -7.140625 L 7.734375 -7.140625 L 7.734375 -5.765625 L 3.078125 -5.765625 L 3.078125 -1.375 L 8.28125 -1.375 L 8.28125 0 L 1.40625 0 L 1.40625 -12.78125 L 8.28125 -12.78125 L 8.28125 -11.40625 Z M 3.078125 -11.40625 "/></g></g></g><g fill="#004aad" fill-opacity="1"><g transform="translate(235.915043, 298.550761)"><g><path d="M 3.078125 -1.359375 L 7.546875 -1.359375 L 7.546875 0 L 1.40625 0 L 1.40625 -12.765625 L 3.078125 -12.765625 Z M 3.078125 -1.359375 "/></g></g></g><g fill="#004aad" fill-opacity="1"><g transform="translate(243.45639, 298.550761)"><g><path d="M 7.203125 0.125 C 6.015625 0.125 4.929688 -0.148438 3.953125 -0.703125 C 2.972656 -1.253906 2.195312 -2.023438 1.625 -3.015625 C 1.0625 -4.015625 0.78125 -5.140625 0.78125 -6.390625 C 0.78125 -7.640625 1.0625 -8.757812 1.625 -9.75 C 2.195312 -10.75 2.972656 -11.523438 3.953125 -12.078125 C 4.929688 -12.628906 6.015625 -12.90625 7.203125 -12.90625 C 8.390625 -12.90625 9.472656 -12.628906 10.453125 -12.078125 C 11.429688 -11.523438 12.203125 -10.753906 12.765625 -9.765625 C 13.328125 -8.773438 13.609375 -7.648438 13.609375 -6.390625 C 13.609375 -5.128906 13.328125 -4.003906 12.765625 -3.015625 C 12.203125 -2.023438 11.429688 -1.253906 10.453125 -0.703125 C 9.472656 -0.148438 8.390625 0.125 7.203125 0.125 Z M 7.203125 -1.3125 C 8.085938 -1.3125 8.882812 -1.519531 9.59375 -1.9375 C 10.3125 -2.351562 10.875 -2.945312 11.28125 -3.71875 C 11.695312 -4.488281 11.90625 -5.378906 11.90625 -6.390625 C 11.90625 -7.410156 11.695312 -8.300781 11.28125 -9.0625 C 10.875 -9.832031 10.316406 -10.425781 9.609375 -10.84375 C 8.898438 -11.257812 8.097656 -11.46875 7.203125 -11.46875 C 6.296875 -11.46875 5.488281 -11.257812 4.78125 -10.84375 C 4.070312 -10.425781 3.507812 -9.832031 3.09375 -9.0625 C 2.6875 -8.300781 2.484375 -7.410156 2.484375 -6.390625 C 2.484375 -5.378906 2.6875 -4.488281 3.09375 -3.71875 C 3.507812 -2.945312 4.070312 -2.351562 4.78125 -1.9375 C 5.5 -1.519531 6.304688 -1.3125 7.203125 -1.3125 Z M 7.203125 -1.3125 "/></g></g></g><g fill="#004aad" fill-opacity="1"><g transform="translate(257.477577, 298.550761)"><g><path d="M 9.9375 -9.03125 C 9.9375 -7.96875 9.570312 -7.082031 8.84375 -6.375 C 8.125 -5.675781 7.019531 -5.328125 5.53125 -5.328125 L 3.078125 -5.328125 L 3.078125 0 L 1.40625 0 L 1.40625 -12.765625 L 5.53125 -12.765625 C 6.96875 -12.765625 8.0625 -12.414062 8.8125 -11.71875 C 9.5625 -11.019531 9.9375 -10.125 9.9375 -9.03125 Z M 5.53125 -6.703125 C 6.457031 -6.703125 7.140625 -6.898438 7.578125 -7.296875 C 8.015625 -7.703125 8.234375 -8.28125 8.234375 -9.03125 C 8.234375 -10.601562 7.332031 -11.390625 5.53125 -11.390625 L 3.078125 -11.390625 L 3.078125 -6.703125 Z M 5.53125 -6.703125 "/></g></g></g><g fill="#004aad" fill-opacity="1"><g transform="translate(267.709701, 298.550761)"><g><path d="M 3.078125 -11.40625 L 3.078125 -7.140625 L 7.734375 -7.140625 L 7.734375 -5.765625 L 3.078125 -5.765625 L 3.078125 -1.375 L 8.28125 -1.375 L 8.28125 0 L 1.40625 0 L 1.40625 -12.78125 L 8.28125 -12.78125 L 8.28125 -11.40625 Z M 3.078125 -11.40625 "/></g></g></g><g fill="#004aad" fill-opacity="1"><g transform="translate(276.733723, 298.550761)"><g><path d="M 8.125 0 L 5.09375 -5.21875 L 3.078125 -5.21875 L 3.078125 0 L 1.40625 0 L 1.40625 -12.765625 L 5.53125 -12.765625 C 6.5 -12.765625 7.3125 -12.597656 7.96875 -12.265625 C 8.632812 -11.941406 9.132812 -11.5 9.46875 -10.9375 C 9.800781 -10.375 9.96875 -9.734375 9.96875 -9.015625 C 9.96875 -8.128906 9.710938 -7.347656 9.203125 -6.671875 C 8.691406 -6.003906 7.929688 -5.5625 6.921875 -5.34375 L 10.125 0 Z M 3.078125 -6.5625 L 5.53125 -6.5625 C 6.4375 -6.5625 7.113281 -6.78125 7.5625 -7.21875 C 8.007812 -7.664062 8.234375 -8.265625 8.234375 -9.015625 C 8.234375 -9.765625 8.007812 -10.347656 7.5625 -10.765625 C 7.125 -11.179688 6.445312 -11.390625 5.53125 -11.390625 L 3.078125 -11.390625 Z M 3.078125 -6.5625 "/></g></g></g></svg>